<svg width="80" height="80" viewBox="0 0 80 80" fill="none" xmlns="http://www.w3.org/2000/svg">
<path d="M11.6455 0.5H68.3545C74.51 0.500033 79.5 5.49003 79.5 11.6455V68.3545C79.5 74.51 74.51 79.5 68.3545 79.5H11.6455C5.49003 79.5 0.500033 74.51 0.5 68.3545V11.6455C0.500034 5.49003 5.49003 0.500034 11.6455 0.5Z" fill="#161616" stroke="#121212"/>
<path d="M80 21.8182L53.0526 80L16 16L80 21.8182Z" fill="#CDD66F"/>
<path d="M72 48H8C3.58172 48 0 51.5817 0 56C0 60.4183 3.58172 64 8 64H72C76.4183 64 80 60.4183 80 56C80 51.5817 76.4183 48 72 48Z" fill="#EE42DF"/>
<path d="M28 52C41.2548 52 52 41.2548 52 28C52 14.7452 41.2548 4 28 4C14.7452 4 4 14.7452 4 28C4 41.2548 14.7452 52 28 52Z" fill="#40BECA"/>
</svg>
