<svg width="760" height="712" viewBox="0 0 760 712" fill="none" xmlns="http://www.w3.org/2000/svg">
<path d="M249.483 1.19906C232.488 4.1231 213.767 11.5661 197.303 22.199C191.593 25.9204 185.087 29.6419 182.963 30.4394C175.129 33.3634 156.01 47.0532 146.848 56.2241C124.675 78.4202 111.398 107.395 107.945 141.42C106.883 152.053 106.883 152.053 86.9672 186.609L66.9182 221.166L55.2341 230.071C28.5465 250.008 11.5514 274.995 3.45213 306.229C0 318.988 0 320.849 0 356.071C0 391.292 0 393.153 3.45213 405.912C11.5514 437.146 28.5465 462.133 55.2341 482.07L66.9182 490.975L86.9672 525.532C106.883 560.088 106.883 560.088 107.945 570.721C111.398 604.746 124.675 633.721 146.848 655.917C156.01 665.088 175.129 678.778 182.963 681.702C185.087 682.499 191.593 686.221 197.303 689.942C220.538 704.828 239.658 710.942 266.478 711.872C291.838 712.803 311.754 708.683 331.006 698.315L337.247 694.993H380H422.753L428.994 698.315C448.246 708.683 468.162 712.803 493.522 711.872C520.342 710.942 539.462 704.828 562.697 689.942C568.407 686.221 574.913 682.499 577.037 681.702C584.871 678.778 603.99 665.088 613.152 655.917C635.325 633.721 648.602 604.746 652.054 570.721C653.117 560.088 653.117 560.088 673.033 525.532L693.082 490.975L704.766 482.07C731.454 462.133 748.449 437.146 756.548 405.912C760 393.153 760 391.292 760 356.071C760 320.849 760 318.988 756.548 306.229C748.449 274.995 731.454 250.008 704.766 230.071L693.082 221.166L673.033 186.609C653.117 152.053 653.117 152.053 652.054 141.42C648.602 107.395 635.325 78.4202 613.152 56.2241C603.99 47.0532 584.871 33.3634 577.037 30.4394C574.913 29.6419 568.407 25.9204 562.697 22.199C539.462 7.31296 520.342 1.19906 493.522 0.26869C468.162 -0.661685 448.246 3.45855 428.994 13.8256L422.753 17.1483H380H337.247L331.006 13.8256C313.215 4.38892 293.962 -0.130042 271.789 0.00286859C263.026 0.135779 252.935 0.667422 249.483 1.19906ZM302.991 9.83826C313.746 12.6294 332.865 21.5344 348.001 30.7052C370.307 44.2621 390.755 68.5848 400.314 92.9074C413.857 127.331 411.069 168.401 392.879 200.698L388.099 209.47L377.079 210.4C343.222 213.059 313.48 226.483 289.713 249.742C283.34 255.989 275.639 264.761 272.586 269.413C269.532 273.932 266.611 277.387 265.947 277.122C265.416 276.723 261.831 271.008 257.848 264.229C249.35 249.875 231.558 230.869 218.148 221.831C206.862 214.255 190.664 206.945 176.855 203.09C167.163 200.432 162.516 199.9 143.662 199.9C118.966 199.9 107.945 202.027 89.4899 210.666C83.9133 213.192 79.2662 214.919 79.0007 214.654C78.3368 214.122 160.79 71.1101 167.959 60.3443C184.291 35.8887 213.634 16.0851 243.641 9.1737C257.715 5.85094 289.713 6.24967 302.991 9.83826ZM520.741 10.237C526.184 11.699 534.018 14.4901 538.001 16.3509C541.985 18.3445 544.109 19.4078 542.648 18.8762C541.188 18.3445 517.023 17.5471 488.875 17.1483C438.686 16.4838 437.89 16.4838 443.732 14.2243C447.051 12.8952 453.291 11.0345 457.673 9.97117C462.054 8.90788 466.834 7.71169 468.295 7.31296C469.755 7.04713 479.979 6.91422 490.867 7.04713C505.87 7.31296 513.305 8.11042 520.741 10.237ZM550.615 27.5154C575.444 34.4267 600.538 50.376 616.338 69.2493C625.898 80.8126 637.715 103.673 641.831 118.825C644.354 128.129 644.752 132.914 644.752 156.705C644.752 188.603 643.159 196.445 632.537 218.508C620.056 244.16 601.467 262.9 575.842 275.66C558.581 284.432 544.773 288.153 526.716 289.216L513.438 290.014L505.472 277.122C483.697 241.767 449.175 218.375 408.945 211.862C402.306 210.799 396.73 209.736 396.464 209.47C396.198 209.204 397.659 205.749 399.783 201.761C423.948 156.837 419.832 100.882 389.161 59.6798C380.929 48.5153 368.449 36.5533 357.827 29.509C353.976 26.8508 350.79 24.4584 350.79 24.1926C350.79 23.9268 393.41 23.9268 445.458 24.0597C538.4 24.4584 540.126 24.5913 550.615 27.5154ZM165.171 52.9013C162.383 56.7557 150.3 76.8252 138.218 97.5593C124.409 121.483 116.31 134.376 116.045 132.648C115.248 127.597 121.223 108.059 127.463 94.9011C135.297 78.8189 146.848 63.9329 159.86 53.1671C165.171 48.7811 169.686 45.4583 169.951 45.7241C170.217 45.857 168.092 49.1798 165.171 52.9013ZM696.534 240.172C718.973 279.115 739.42 315.4 741.943 320.716C764.647 368.431 754.556 425.317 716.716 463.197C705.961 473.829 696.401 480.608 678.609 490.177C665.066 497.355 645.681 504.399 644.354 502.671C643.822 502.139 642.229 498.949 640.901 495.627C633.599 478.481 619.259 459.076 605.052 447.38C581.817 428.108 555.528 417.874 524.989 416.279C511.978 415.614 510.119 415.216 510.915 413.355C515.297 403.254 521.272 385.843 522.865 378.798C527.778 356.336 526.184 327.495 518.882 306.096L515.695 296.659L527.911 295.862C593.767 291.21 645.549 240.438 651.656 174.116C652.453 166.141 652.851 165.078 654.179 166.939C654.976 168.268 674.095 201.23 696.534 240.172ZM176.723 209.736C199.427 216.381 220.14 229.008 235.674 245.888C246.562 257.451 262.628 282.837 261.433 286.558C261.034 287.887 258.512 294.799 255.989 301.976C249.35 319.919 246.695 337.064 247.757 355.406C248.819 375.741 252.537 390.893 262.362 413.355C263.159 415.349 260.901 415.614 241.649 416.279C218.015 417.077 205.535 419.469 190 426.114C162.648 437.943 141.139 456.418 126.932 480.475C116.31 498.684 111.398 513.437 108.609 535.234L107.149 547.595L64.3955 473.431C40.8945 432.627 19.7834 395.279 17.5262 390.494C-4.51433 343.045 5.84207 286.558 43.2844 248.945C62.0056 230.337 92.2781 213.723 118.435 207.875C131.447 204.951 163.843 206.014 176.723 209.736ZM417.841 220.369C466.967 232.597 504.808 271.141 516.226 320.849C519.679 335.469 519.679 363.381 516.226 378.001C504.542 428.64 465.772 467.45 415.185 479.146C400.58 482.601 372.697 482.601 358.092 479.146C273.781 459.741 229.567 367.235 267.938 290.546C287.058 252.4 321.447 226.483 363.669 218.508C377.477 215.85 403.634 216.78 417.841 220.369ZM721.363 253.463C737.959 272.337 750.706 299.716 752.565 320.716L753.228 328.824L748.05 318.191C745.262 312.343 733.843 291.875 722.823 272.603C711.67 253.463 702.641 237.381 702.641 236.983C702.641 235.521 715.786 247.217 721.363 253.463ZM37.3096 439.671C48.4626 458.943 57.2257 474.893 56.9602 475.291C55.7652 476.488 33.8574 453.627 28.5465 445.785C17.2607 428.906 8.7631 407.241 7.43536 391.425L6.77149 383.317L11.9497 393.95C14.7379 399.798 26.1565 420.399 37.3096 439.671ZM273.117 430.102C280.419 441.399 299.539 459.342 312.816 467.583C336.184 482.07 357.959 488.184 386.639 488.184C415.318 488.184 437.093 482.07 460.461 467.583C473.871 459.209 492.858 441.399 500.293 429.969L505.472 422.127L522.732 422.925C544.64 423.855 556.855 426.912 575.842 436.481C601.467 449.241 620.056 467.981 632.537 493.633C643.159 515.696 644.752 523.538 644.752 555.437C644.752 579.36 644.354 584.012 641.831 593.316C635.059 618.037 619.126 643.158 600.14 659.107C588.323 668.942 565.486 680.638 549.951 684.759L538.665 687.683H380H221.335L210.049 684.759C194.514 680.638 171.677 668.942 159.86 659.107C140.874 643.158 124.941 618.037 118.169 593.316C115.646 584.012 115.248 579.36 115.248 555.437C115.248 523.538 116.841 515.696 127.463 493.633C139.546 468.912 158.267 449.64 182.166 437.279C204.605 425.849 218.015 422.792 248.022 422.659L268.071 422.526L273.117 430.102ZM681.132 498.152C680.999 498.684 674.493 510.114 666.792 523.405L652.851 547.595L651.391 535.234C650.461 528.323 649.133 520.215 648.204 517.025C647.407 513.835 647.142 510.779 647.806 510.247C648.337 509.715 652.187 508.253 656.17 507.057C660.154 505.994 667.058 503.203 671.44 501.076C679.937 496.823 681.929 496.291 681.132 498.152ZM271.125 694.993C321.314 695.657 322.11 695.657 316.268 697.917C300.867 703.898 293.564 704.961 271.125 704.828C247.226 704.828 237.002 702.834 221.999 695.79C218.015 693.797 215.891 692.733 217.351 693.265C218.812 693.797 242.977 694.594 271.125 694.993ZM538.001 695.923C522.6 702.967 512.509 704.828 488.875 704.828C466.038 704.961 456.08 703.366 443.068 697.518C437.89 695.259 438.421 695.126 484.228 694.993C509.853 694.86 533.354 694.328 536.674 693.797C545.835 692.069 545.835 692.335 538.001 695.923Z" fill="#121212"/>
</svg>
